<svg xmlns="http://www.w3.org/2000/svg" width="1782" height="1260" viewBox="0 0 594 420">
<rect width="594" height="420" fill="#fff"/>
<style>text{font-family:DejaVu Sans,sans-serif;fill:#182532}.pin{font-size:2.5px}.net{font-size:2.6px}.ref{font-size:3.8px;font-weight:bold}.value{font-size:3px}</style>
<text x="12" y="14" font-size="6">Sensing and isolation / A-DRAFT</text>
<text x="12" y="22" font-size="3.5" fill="#af3d20">Connection-sheet preview — native ERC results are recorded separately</text>
<rect x="57.150000000000006" y="35.56" width="35.56" height="20.32" fill="#fff2d7" stroke="#354b5d" stroke-width=".35"/>
<text class="ref" x="74.93" y="29.560000000000002" text-anchor="middle">U1</text>
<text class="value" x="74.93" y="33.06" text-anchor="middle">INA228AIDGSR</text>
<line x1="57.150000000000006" y1="40.64" x2="49.53" y2="40.64" stroke="#354b5d" stroke-width=".25"/>
<text class="pin" x="58.150000000000006" y="41.44" text-anchor="start">A1</text>
<text font-size="1.9" x="53.34" y="39.94" text-anchor="middle">1</text>
<text class="net" x="48.53" y="41.44" text-anchor="end">GND_INLINE</text>
<line x1="57.150000000000006" y1="43.18" x2="49.53" y2="43.18" stroke="#354b5d" stroke-width=".25"/>
<text class="pin" x="58.150000000000006" y="43.98" text-anchor="start">A0</text>
<text font-size="1.9" x="53.34" y="42.48" text-anchor="middle">2</text>
<text class="net" x="48.53" y="43.98" text-anchor="end">GND_INLINE</text>
<line x1="57.150000000000006" y1="45.72" x2="49.53" y2="45.72" stroke="#354b5d" stroke-width=".25"/>
<text class="pin" x="58.150000000000006" y="46.519999999999996" text-anchor="start">ALERT</text>
<text font-size="1.9" x="53.34" y="45.019999999999996" text-anchor="middle">3</text>
<text class="net" x="48.53" y="46.519999999999996" text-anchor="end">ALERT_INLINE</text>
<line x1="57.150000000000006" y1="48.26" x2="49.53" y2="48.26" stroke="#354b5d" stroke-width=".25"/>
<text class="pin" x="58.150000000000006" y="49.059999999999995" text-anchor="start">SDA</text>
<text font-size="1.9" x="53.34" y="47.559999999999995" text-anchor="middle">4</text>
<text class="net" x="48.53" y="49.059999999999995" text-anchor="end">SDA_INLINE</text>
<line x1="57.150000000000006" y1="50.8" x2="49.53" y2="50.8" stroke="#354b5d" stroke-width=".25"/>
<text class="pin" x="58.150000000000006" y="51.599999999999994" text-anchor="start">SCL</text>
<text font-size="1.9" x="53.34" y="50.099999999999994" text-anchor="middle">5</text>
<text class="net" x="48.53" y="51.599999999999994" text-anchor="end">SCL_INLINE</text>
<line x1="92.71000000000001" y1="40.64" x2="100.33000000000001" y2="40.64" stroke="#354b5d" stroke-width=".25"/>
<text class="pin" x="91.71000000000001" y="41.44" text-anchor="end">VS</text>
<text font-size="1.9" x="96.52000000000001" y="39.94" text-anchor="middle">6</text>
<text class="net" x="101.33000000000001" y="41.44" text-anchor="start">3V3_INLINE</text>
<line x1="92.71000000000001" y1="43.18" x2="100.33000000000001" y2="43.18" stroke="#354b5d" stroke-width=".25"/>
<text class="pin" x="91.71000000000001" y="43.98" text-anchor="end">GND</text>
<text font-size="1.9" x="96.52000000000001" y="42.48" text-anchor="middle">7</text>
<text class="net" x="101.33000000000001" y="43.98" text-anchor="start">GND_INLINE</text>
<line x1="92.71000000000001" y1="45.72" x2="100.33000000000001" y2="45.72" stroke="#354b5d" stroke-width=".25"/>
<text class="pin" x="91.71000000000001" y="46.519999999999996" text-anchor="end">VBUS</text>
<text font-size="1.9" x="96.52000000000001" y="45.019999999999996" text-anchor="middle">8</text>
<text class="net" x="101.33000000000001" y="46.519999999999996" text-anchor="start">VBUS_FILTER</text>
<line x1="92.71000000000001" y1="48.26" x2="100.33000000000001" y2="48.26" stroke="#354b5d" stroke-width=".25"/>
<text class="pin" x="91.71000000000001" y="49.059999999999995" text-anchor="end">IN-</text>
<text font-size="1.9" x="96.52000000000001" y="47.559999999999995" text-anchor="middle">9</text>
<text class="net" x="101.33000000000001" y="49.059999999999995" text-anchor="start">SHUNT_MINUS</text>
<line x1="92.71000000000001" y1="50.8" x2="100.33000000000001" y2="50.8" stroke="#354b5d" stroke-width=".25"/>
<text class="pin" x="91.71000000000001" y="51.599999999999994" text-anchor="end">IN+</text>
<text font-size="1.9" x="96.52000000000001" y="50.099999999999994" text-anchor="middle">10</text>
<text class="net" x="101.33000000000001" y="51.599999999999994" text-anchor="start">SHUNT_PLUS</text>
<rect x="207.01000000000002" y="36.83" width="25.4" height="17.78" fill="#e8e3f6" stroke="#354b5d" stroke-width=".35"/>
<text class="ref" x="219.71" y="30.83" text-anchor="middle">U2</text>
<text class="value" x="219.71" y="34.33" text-anchor="middle">ISO1641BD</text>
<line x1="207.01000000000002" y1="41.91" x2="199.39000000000001" y2="41.91" stroke="#354b5d" stroke-width=".25"/>
<text class="pin" x="208.01000000000002" y="42.709999999999994" text-anchor="start">VCC1</text>
<text font-size="1.9" x="203.20000000000002" y="41.209999999999994" text-anchor="middle">1</text>
<text class="net" x="198.39000000000001" y="42.709999999999994" text-anchor="end">3V3_ISO_PC</text>
<line x1="207.01000000000002" y1="44.449999999999996" x2="199.39000000000001" y2="44.449999999999996" stroke="#354b5d" stroke-width=".25"/>
<text class="pin" x="208.01000000000002" y="45.24999999999999" text-anchor="start">SDA1</text>
<text font-size="1.9" x="203.20000000000002" y="43.74999999999999" text-anchor="middle">2</text>
<text class="net" x="198.39000000000001" y="45.24999999999999" text-anchor="end">SDA_PC</text>
<line x1="207.01000000000002" y1="46.99" x2="199.39000000000001" y2="46.99" stroke="#354b5d" stroke-width=".25"/>
<text class="pin" x="208.01000000000002" y="47.79" text-anchor="start">SCL1</text>
<text font-size="1.9" x="203.20000000000002" y="46.29" text-anchor="middle">3</text>
<text class="net" x="198.39000000000001" y="47.79" text-anchor="end">SCL_PC</text>
<line x1="207.01000000000002" y1="49.53" x2="199.39000000000001" y2="49.53" stroke="#354b5d" stroke-width=".25"/>
<text class="pin" x="208.01000000000002" y="50.33" text-anchor="start">GND1</text>
<text font-size="1.9" x="203.20000000000002" y="48.83" text-anchor="middle">4</text>
<text class="net" x="198.39000000000001" y="50.33" text-anchor="end">GND_PC</text>
<line x1="232.41" y1="41.91" x2="240.03" y2="41.91" stroke="#354b5d" stroke-width=".25"/>
<text class="pin" x="231.41" y="42.709999999999994" text-anchor="end">GND2</text>
<text font-size="1.9" x="236.22" y="41.209999999999994" text-anchor="middle">5</text>
<text class="net" x="241.03" y="42.709999999999994" text-anchor="start">GND_INLINE</text>
<line x1="232.41" y1="44.449999999999996" x2="240.03" y2="44.449999999999996" stroke="#354b5d" stroke-width=".25"/>
<text class="pin" x="231.41" y="45.24999999999999" text-anchor="end">SCL2</text>
<text font-size="1.9" x="236.22" y="43.74999999999999" text-anchor="middle">6</text>
<text class="net" x="241.03" y="45.24999999999999" text-anchor="start">SCL_INLINE</text>
<line x1="232.41" y1="46.99" x2="240.03" y2="46.99" stroke="#354b5d" stroke-width=".25"/>
<text class="pin" x="231.41" y="47.79" text-anchor="end">SDA2</text>
<text font-size="1.9" x="236.22" y="46.29" text-anchor="middle">7</text>
<text class="net" x="241.03" y="47.79" text-anchor="start">SDA_INLINE</text>
<line x1="232.41" y1="49.53" x2="240.03" y2="49.53" stroke="#354b5d" stroke-width=".25"/>
<text class="pin" x="231.41" y="50.33" text-anchor="end">VCC2</text>
<text font-size="1.9" x="236.22" y="48.83" text-anchor="middle">8</text>
<text class="net" x="241.03" y="50.33" text-anchor="start">3V3_INLINE</text>
<rect x="359.41" y="40.64" width="10.16" height="10.16" fill="#fff2d7" stroke="#354b5d" stroke-width=".35"/>
<text class="ref" x="364.49" y="34.64" text-anchor="middle">R3</text>
<text class="value" x="364.49" y="38.14" text-anchor="middle">10R 0.1% matched</text>
<line x1="359.41" y1="45.72" x2="351.79" y2="45.72" stroke="#354b5d" stroke-width=".25"/>
<text class="pin" x="360.41" y="46.519999999999996" text-anchor="start">1</text>
<text font-size="1.9" x="355.6" y="45.019999999999996" text-anchor="middle">1</text>
<text class="net" x="350.79" y="46.519999999999996" text-anchor="end">SHUNT_SA</text>
<line x1="369.57" y1="45.72" x2="377.19" y2="45.72" stroke="#354b5d" stroke-width=".25"/>
<text class="pin" x="368.57" y="46.519999999999996" text-anchor="end">2</text>
<text font-size="1.9" x="373.38" y="45.019999999999996" text-anchor="middle">2</text>
<text class="net" x="378.19" y="46.519999999999996" text-anchor="start">SHUNT_PLUS</text>
<rect x="505.46000000000004" y="40.64" width="10.16" height="10.16" fill="#fff2d7" stroke="#354b5d" stroke-width=".35"/>
<text class="ref" x="510.54" y="34.64" text-anchor="middle">R4</text>
<text class="value" x="510.54" y="38.14" text-anchor="middle">10R 0.1% matched</text>
<line x1="505.46000000000004" y1="45.72" x2="497.84000000000003" y2="45.72" stroke="#354b5d" stroke-width=".25"/>
<text class="pin" x="506.46000000000004" y="46.519999999999996" text-anchor="start">1</text>
<text font-size="1.9" x="501.65000000000003" y="45.019999999999996" text-anchor="middle">1</text>
<text class="net" x="496.84000000000003" y="46.519999999999996" text-anchor="end">SHUNT_SB</text>
<line x1="515.62" y1="45.72" x2="523.24" y2="45.72" stroke="#354b5d" stroke-width=".25"/>
<text class="pin" x="514.62" y="46.519999999999996" text-anchor="end">2</text>
<text font-size="1.9" x="519.4300000000001" y="45.019999999999996" text-anchor="middle">2</text>
<text class="net" x="524.24" y="46.519999999999996" text-anchor="start">SHUNT_MINUS</text>
<rect x="69.85000000000001" y="83.82000000000001" width="10.16" height="10.16" fill="#fff2d7" stroke="#354b5d" stroke-width=".35"/>
<text class="ref" x="74.93" y="77.82000000000001" text-anchor="middle">C1</text>
<text class="value" x="74.93" y="81.32000000000001" text-anchor="middle">100nF 100V differential</text>
<line x1="69.85000000000001" y1="88.9" x2="62.230000000000004" y2="88.9" stroke="#354b5d" stroke-width=".25"/>
<text class="pin" x="70.85000000000001" y="89.7" text-anchor="start">1</text>
<text font-size="1.9" x="66.04" y="88.2" text-anchor="middle">1</text>
<text class="net" x="61.230000000000004" y="89.7" text-anchor="end">SHUNT_PLUS</text>
<line x1="80.01" y1="88.9" x2="87.63000000000001" y2="88.9" stroke="#354b5d" stroke-width=".25"/>
<text class="pin" x="79.01" y="89.7" text-anchor="end">2</text>
<text font-size="1.9" x="83.82000000000001" y="88.2" text-anchor="middle">2</text>
<text class="net" x="88.63000000000001" y="89.7" text-anchor="start">SHUNT_MINUS</text>
<rect x="214.63" y="83.82000000000001" width="10.16" height="10.16" fill="#fff2d7" stroke="#354b5d" stroke-width=".35"/>
<text class="ref" x="219.71" y="77.82000000000001" text-anchor="middle">R5</text>
<text class="value" x="219.71" y="81.32000000000001" text-anchor="middle">100R</text>
<line x1="214.63" y1="88.9" x2="207.01" y2="88.9" stroke="#354b5d" stroke-width=".25"/>
<text class="pin" x="215.63" y="89.7" text-anchor="start">1</text>
<text font-size="1.9" x="210.82" y="88.2" text-anchor="middle">1</text>
<text class="net" x="206.01" y="89.7" text-anchor="end">VBUS_B</text>
<line x1="224.79000000000002" y1="88.9" x2="232.41000000000003" y2="88.9" stroke="#354b5d" stroke-width=".25"/>
<text class="pin" x="223.79000000000002" y="89.7" text-anchor="end">2</text>
<text font-size="1.9" x="228.60000000000002" y="88.2" text-anchor="middle">2</text>
<text class="net" x="233.41000000000003" y="89.7" text-anchor="start">VBUS_FILTER</text>
<rect x="359.41" y="83.82000000000001" width="10.16" height="10.16" fill="#fff2d7" stroke="#354b5d" stroke-width=".35"/>
<text class="ref" x="364.49" y="77.82000000000001" text-anchor="middle">C2</text>
<text class="value" x="364.49" y="81.32000000000001" text-anchor="middle">10nF 100V X7R</text>
<line x1="359.41" y1="88.9" x2="351.79" y2="88.9" stroke="#354b5d" stroke-width=".25"/>
<text class="pin" x="360.41" y="89.7" text-anchor="start">1</text>
<text font-size="1.9" x="355.6" y="88.2" text-anchor="middle">1</text>
<text class="net" x="350.79" y="89.7" text-anchor="end">VBUS_FILTER</text>
<line x1="369.57" y1="88.9" x2="377.19" y2="88.9" stroke="#354b5d" stroke-width=".25"/>
<text class="pin" x="368.57" y="89.7" text-anchor="end">2</text>
<text font-size="1.9" x="373.38" y="88.2" text-anchor="middle">2</text>
<text class="net" x="378.19" y="89.7" text-anchor="start">GND_INLINE</text>
<rect x="505.46000000000004" y="83.82000000000001" width="10.16" height="10.16" fill="#fff2d7" stroke="#354b5d" stroke-width=".35"/>
<text class="ref" x="510.54" y="77.82000000000001" text-anchor="middle">C3</text>
<text class="value" x="510.54" y="81.32000000000001" text-anchor="middle">100nF 10V at U1</text>
<line x1="505.46000000000004" y1="88.9" x2="497.84000000000003" y2="88.9" stroke="#354b5d" stroke-width=".25"/>
<text class="pin" x="506.46000000000004" y="89.7" text-anchor="start">1</text>
<text font-size="1.9" x="501.65000000000003" y="88.2" text-anchor="middle">1</text>
<text class="net" x="496.84000000000003" y="89.7" text-anchor="end">3V3_INLINE</text>
<line x1="515.62" y1="88.9" x2="523.24" y2="88.9" stroke="#354b5d" stroke-width=".25"/>
<text class="pin" x="514.62" y="89.7" text-anchor="end">2</text>
<text font-size="1.9" x="519.4300000000001" y="88.2" text-anchor="middle">2</text>
<text class="net" x="524.24" y="89.7" text-anchor="start">GND_INLINE</text>
<rect x="69.85000000000001" y="121.92" width="10.16" height="10.16" fill="#fff2d7" stroke="#354b5d" stroke-width=".35"/>
<text class="ref" x="74.93" y="115.92" text-anchor="middle">C4</text>
<text class="value" x="74.93" y="119.42" text-anchor="middle">100nF 10V at U2.8</text>
<line x1="69.85000000000001" y1="127.0" x2="62.230000000000004" y2="127.0" stroke="#354b5d" stroke-width=".25"/>
<text class="pin" x="70.85000000000001" y="127.8" text-anchor="start">1</text>
<text font-size="1.9" x="66.04" y="126.3" text-anchor="middle">1</text>
<text class="net" x="61.230000000000004" y="127.8" text-anchor="end">3V3_INLINE</text>
<line x1="80.01" y1="127.0" x2="87.63000000000001" y2="127.0" stroke="#354b5d" stroke-width=".25"/>
<text class="pin" x="79.01" y="127.8" text-anchor="end">2</text>
<text font-size="1.9" x="83.82000000000001" y="126.3" text-anchor="middle">2</text>
<text class="net" x="88.63000000000001" y="127.8" text-anchor="start">GND_INLINE</text>
<rect x="214.63" y="121.92" width="10.16" height="10.16" fill="#e7f0fc" stroke="#354b5d" stroke-width=".35"/>
<text class="ref" x="219.71" y="115.92" text-anchor="middle">C5</text>
<text class="value" x="219.71" y="119.42" text-anchor="middle">100nF 10V at U2.1</text>
<line x1="214.63" y1="127.0" x2="207.01" y2="127.0" stroke="#354b5d" stroke-width=".25"/>
<text class="pin" x="215.63" y="127.8" text-anchor="start">1</text>
<text font-size="1.9" x="210.82" y="126.3" text-anchor="middle">1</text>
<text class="net" x="206.01" y="127.8" text-anchor="end">3V3_ISO_PC</text>
<line x1="224.79000000000002" y1="127.0" x2="232.41000000000003" y2="127.0" stroke="#354b5d" stroke-width=".25"/>
<text class="pin" x="223.79000000000002" y="127.8" text-anchor="end">2</text>
<text font-size="1.9" x="228.60000000000002" y="126.3" text-anchor="middle">2</text>
<text class="net" x="233.41000000000003" y="127.8" text-anchor="start">GND_PC</text>
<rect x="359.41" y="121.92" width="10.16" height="10.16" fill="#e7f0fc" stroke="#354b5d" stroke-width=".35"/>
<text class="ref" x="364.49" y="115.92" text-anchor="middle">R6</text>
<text class="value" x="364.49" y="119.42" text-anchor="middle">2k2 pull-up</text>
<line x1="359.41" y1="127.0" x2="351.79" y2="127.0" stroke="#354b5d" stroke-width=".25"/>
<text class="pin" x="360.41" y="127.8" text-anchor="start">1</text>
<text font-size="1.9" x="355.6" y="126.3" text-anchor="middle">1</text>
<text class="net" x="350.79" y="127.8" text-anchor="end">SDA_PC</text>
<line x1="369.57" y1="127.0" x2="377.19" y2="127.0" stroke="#354b5d" stroke-width=".25"/>
<text class="pin" x="368.57" y="127.8" text-anchor="end">2</text>
<text font-size="1.9" x="373.38" y="126.3" text-anchor="middle">2</text>
<text class="net" x="378.19" y="127.8" text-anchor="start">3V3_ISO_PC</text>
<rect x="505.46000000000004" y="121.92" width="10.16" height="10.16" fill="#e7f0fc" stroke="#354b5d" stroke-width=".35"/>
<text class="ref" x="510.54" y="115.92" text-anchor="middle">R7</text>
<text class="value" x="510.54" y="119.42" text-anchor="middle">2k2 pull-up</text>
<line x1="505.46000000000004" y1="127.0" x2="497.84000000000003" y2="127.0" stroke="#354b5d" stroke-width=".25"/>
<text class="pin" x="506.46000000000004" y="127.8" text-anchor="start">1</text>
<text font-size="1.9" x="501.65000000000003" y="126.3" text-anchor="middle">1</text>
<text class="net" x="496.84000000000003" y="127.8" text-anchor="end">SCL_PC</text>
<line x1="515.62" y1="127.0" x2="523.24" y2="127.0" stroke="#354b5d" stroke-width=".25"/>
<text class="pin" x="514.62" y="127.8" text-anchor="end">2</text>
<text font-size="1.9" x="519.4300000000001" y="126.3" text-anchor="middle">2</text>
<text class="net" x="524.24" y="127.8" text-anchor="start">3V3_ISO_PC</text>
<rect x="69.85000000000001" y="161.29" width="10.16" height="10.16" fill="#fff2d7" stroke="#354b5d" stroke-width=".35"/>
<text class="ref" x="74.93" y="155.29" text-anchor="middle">R8</text>
<text class="value" x="74.93" y="158.79" text-anchor="middle">2k2 pull-up</text>
<line x1="69.85000000000001" y1="166.37" x2="62.230000000000004" y2="166.37" stroke="#354b5d" stroke-width=".25"/>
<text class="pin" x="70.85000000000001" y="167.17000000000002" text-anchor="start">1</text>
<text font-size="1.9" x="66.04" y="165.67000000000002" text-anchor="middle">1</text>
<text class="net" x="61.230000000000004" y="167.17000000000002" text-anchor="end">SDA_INLINE</text>
<line x1="80.01" y1="166.37" x2="87.63000000000001" y2="166.37" stroke="#354b5d" stroke-width=".25"/>
<text class="pin" x="79.01" y="167.17000000000002" text-anchor="end">2</text>
<text font-size="1.9" x="83.82000000000001" y="165.67000000000002" text-anchor="middle">2</text>
<text class="net" x="88.63000000000001" y="167.17000000000002" text-anchor="start">3V3_INLINE</text>
<rect x="214.63" y="161.29" width="10.16" height="10.16" fill="#fff2d7" stroke="#354b5d" stroke-width=".35"/>
<text class="ref" x="219.71" y="155.29" text-anchor="middle">R9</text>
<text class="value" x="219.71" y="158.79" text-anchor="middle">2k2 pull-up</text>
<line x1="214.63" y1="166.37" x2="207.01" y2="166.37" stroke="#354b5d" stroke-width=".25"/>
<text class="pin" x="215.63" y="167.17000000000002" text-anchor="start">1</text>
<text font-size="1.9" x="210.82" y="165.67000000000002" text-anchor="middle">1</text>
<text class="net" x="206.01" y="167.17000000000002" text-anchor="end">SCL_INLINE</text>
<line x1="224.79000000000002" y1="166.37" x2="232.41000000000003" y2="166.37" stroke="#354b5d" stroke-width=".25"/>
<text class="pin" x="223.79000000000002" y="167.17000000000002" text-anchor="end">2</text>
<text font-size="1.9" x="228.60000000000002" y="165.67000000000002" text-anchor="middle">2</text>
<text class="net" x="233.41000000000003" y="167.17000000000002" text-anchor="start">3V3_INLINE</text>
<rect x="351.79" y="160.02" width="25.4" height="12.7" fill="#e7f0fc" stroke="#354b5d" stroke-width=".35"/>
<text class="ref" x="364.49" y="154.02" text-anchor="middle">J5</text>
<text class="value" x="364.49" y="157.52" text-anchor="middle">PC I2C / external MCU</text>
<line x1="351.79" y1="165.1" x2="344.17" y2="165.1" stroke="#354b5d" stroke-width=".25"/>
<text class="pin" x="352.79" y="165.9" text-anchor="start">1</text>
<text font-size="1.9" x="347.98" y="164.4" text-anchor="middle">1</text>
<text class="net" x="343.17" y="165.9" text-anchor="end">GND_PC</text>
<line x1="351.79" y1="167.64000000000001" x2="344.17" y2="167.64000000000001" stroke="#354b5d" stroke-width=".25"/>
<text class="pin" x="352.79" y="168.44000000000003" text-anchor="start">2</text>
<text font-size="1.9" x="347.98" y="166.94000000000003" text-anchor="middle">2</text>
<text class="net" x="343.17" y="168.44000000000003" text-anchor="end">3V3_ISO_PC</text>
<line x1="377.19" y1="165.1" x2="384.81" y2="165.1" stroke="#354b5d" stroke-width=".25"/>
<text class="pin" x="376.19" y="165.9" text-anchor="end">3</text>
<text font-size="1.9" x="381.0" y="164.4" text-anchor="middle">3</text>
<text class="net" x="385.81" y="165.9" text-anchor="start">SCL_PC</text>
<line x1="377.19" y1="167.64000000000001" x2="384.81" y2="167.64000000000001" stroke="#354b5d" stroke-width=".25"/>
<text class="pin" x="376.19" y="168.44000000000003" text-anchor="end">4</text>
<text font-size="1.9" x="381.0" y="166.94000000000003" text-anchor="middle">4</text>
<text class="net" x="385.81" y="168.44000000000003" text-anchor="start">SDA_PC</text>
<rect x="497.84000000000003" y="160.02" width="25.4" height="12.7" fill="#fff2d7" stroke="#354b5d" stroke-width=".35"/>
<text class="ref" x="510.54" y="154.02" text-anchor="middle">J6</text>
<text class="value" x="510.54" y="157.52" text-anchor="middle">INLINE I2C debug</text>
<line x1="497.84000000000003" y1="165.1" x2="490.22" y2="165.1" stroke="#354b5d" stroke-width=".25"/>
<text class="pin" x="498.84000000000003" y="165.9" text-anchor="start">1</text>
<text font-size="1.9" x="494.03000000000003" y="164.4" text-anchor="middle">1</text>
<text class="net" x="489.22" y="165.9" text-anchor="end">GND_INLINE</text>
<line x1="497.84000000000003" y1="167.64000000000001" x2="490.22" y2="167.64000000000001" stroke="#354b5d" stroke-width=".25"/>
<text class="pin" x="498.84000000000003" y="168.44000000000003" text-anchor="start">2</text>
<text font-size="1.9" x="494.03000000000003" y="166.94000000000003" text-anchor="middle">2</text>
<text class="net" x="489.22" y="168.44000000000003" text-anchor="end">3V3_INLINE</text>
<line x1="523.24" y1="165.1" x2="530.86" y2="165.1" stroke="#354b5d" stroke-width=".25"/>
<text class="pin" x="522.24" y="165.9" text-anchor="end">3</text>
<text font-size="1.9" x="527.0500000000001" y="164.4" text-anchor="middle">3</text>
<text class="net" x="531.86" y="165.9" text-anchor="start">SCL_INLINE</text>
<line x1="523.24" y1="167.64000000000001" x2="530.86" y2="167.64000000000001" stroke="#354b5d" stroke-width=".25"/>
<text class="pin" x="522.24" y="168.44000000000003" text-anchor="end">4</text>
<text font-size="1.9" x="527.0500000000001" y="166.94000000000003" text-anchor="middle">4</text>
<text class="net" x="531.86" y="168.44000000000003" text-anchor="start">SDA_INLINE</text>
<rect x="69.85000000000001" y="201.92999999999998" width="10.16" height="10.16" fill="#fff2d7" stroke="#354b5d" stroke-width=".35"/>
<text class="ref" x="74.93" y="195.92999999999998" text-anchor="middle">TP10</text>
<text class="value" x="74.93" y="199.42999999999998" text-anchor="middle">ALERT: floating scope only</text>
<line x1="69.85000000000001" y1="207.01" x2="62.230000000000004" y2="207.01" stroke="#354b5d" stroke-width=".25"/>
<text class="pin" x="70.85000000000001" y="207.81" text-anchor="start">1</text>
<text font-size="1.9" x="66.04" y="206.31" text-anchor="middle">1</text>
<text class="net" x="61.230000000000004" y="207.81" text-anchor="end">ALERT_INLINE</text>
<rect x="214.63" y="201.92999999999998" width="10.16" height="10.16" fill="#fff2d7" stroke="#354b5d" stroke-width=".35"/>
<text class="ref" x="219.71" y="195.92999999999998" text-anchor="middle">#FLG1</text>
<text class="value" x="219.71" y="199.42999999999998" text-anchor="middle">PWR_FLAG</text>
<line x1="214.63" y1="207.01" x2="207.01" y2="207.01" stroke="#354b5d" stroke-width=".25"/>
<text class="pin" x="215.63" y="207.81" text-anchor="start">1</text>
<text font-size="1.9" x="210.82" y="206.31" text-anchor="middle">1</text>
<text class="net" x="206.01" y="207.81" text-anchor="end">3V3_INLINE</text>
<rect x="359.41" y="201.92999999999998" width="10.16" height="10.16" fill="#fff2d7" stroke="#354b5d" stroke-width=".35"/>
<text class="ref" x="364.49" y="195.92999999999998" text-anchor="middle">#FLG2</text>
<text class="value" x="364.49" y="199.42999999999998" text-anchor="middle">PWR_FLAG</text>
<line x1="359.41" y1="207.01" x2="351.79" y2="207.01" stroke="#354b5d" stroke-width=".25"/>
<text class="pin" x="360.41" y="207.81" text-anchor="start">1</text>
<text font-size="1.9" x="355.6" y="206.31" text-anchor="middle">1</text>
<text class="net" x="350.79" y="207.81" text-anchor="end">GND_INLINE</text>
<rect x="505.46000000000004" y="201.92999999999998" width="10.16" height="10.16" fill="#e7f0fc" stroke="#354b5d" stroke-width=".35"/>
<text class="ref" x="510.54" y="195.92999999999998" text-anchor="middle">#FLG3</text>
<text class="value" x="510.54" y="199.42999999999998" text-anchor="middle">PWR_FLAG</text>
<line x1="505.46000000000004" y1="207.01" x2="497.84000000000003" y2="207.01" stroke="#354b5d" stroke-width=".25"/>
<text class="pin" x="506.46000000000004" y="207.81" text-anchor="start">1</text>
<text font-size="1.9" x="501.65000000000003" y="206.31" text-anchor="middle">1</text>
<text class="net" x="496.84000000000003" y="207.81" text-anchor="end">GND_PC</text>
<text x="12" y="397" font-size="3">PC and INLINE grounds stay separate. U2 is the only signal crossing. Kelvin routing is a PCB requirement.</text>
<text x="12" y="409" font-size="3">Same net names connect across sheets. INLINE = amber; PC = blue; isolation component = purple.</text>
</svg>
